{
	"asset":{
		"generator":"Khronos glTF Blender I/O v4.3.47",
		"version":"2.0"
	},
	"scene":0,
	"scenes":[
		{
			"name":"Scene",
			"nodes":[
				0,
				1,
				2
			]
		}
	],
	"nodes":[
		{
			"mesh":0,
			"name":"Surface"
		},
		{
			"mesh":1,
			"name":"Atmo",
			"scale":[
				1.0079647302627563,
				1.0079641342163086,
				1.0079647302627563
			]
		},
		{
			"mesh":2,
			"name":"Clouds",
			"scale":[
				1.0033049583435059,
				1.003304362297058,
				1.0033049583435059
			]
		}
	],
	"materials":[
		{
			"doubleSided":true,
			"emissiveFactor":[
				1,
				1,
				1
			],
			"name":"Material.001",
			"pbrMetallicRoughness":{
				"baseColorTexture":{
					"index":0
				},
				"metallicFactor":0,
				"metallicRoughnessTexture":{
					"index":1
				}
			}
		},
		{
			"doubleSided":true,
			"name":"Material.002"
		},
		{
			"doubleSided":true,
			"name":"Material.003"
		}
	],
	"meshes":[
		{
			"name":"Sphere",
			"primitives":[
				{
					"attributes":{
						"POSITION":0,
						"NORMAL":1,
						"TEXCOORD_0":2
					},
					"indices":3,
					"material":0
				}
			]
		},
		{
			"name":"Sphere.005",
			"primitives":[
				{
					"attributes":{
						"POSITION":4,
						"NORMAL":5,
						"TEXCOORD_0":6
					},
					"indices":3,
					"material":1
				}
			]
		},
		{
			"name":"Sphere.006",
			"primitives":[
				{
					"attributes":{
						"POSITION":7,
						"NORMAL":8,
						"TEXCOORD_0":9
					},
					"indices":3,
					"material":2
				}
			]
		}
	],
	"textures":[
		{
			"sampler":0,
			"source":0
		},
		{
			"sampler":0,
			"source":1
		}
	],
	"images":[
		{
			"mimeType":"image/png",
			"name":"earth_landocean_16K",
			"uri":"earth_landocean_16K.png"
		},
		{
			"mimeType":"image/png",
			"name":"earth_landocean_16K",
			"uri":"earth_landocean_16K-1.png"
		}
	],
	"accessors":[
		{
			"bufferView":0,
			"componentType":5126,
			"count":151,
			"max":[
				637.1006469726562,
				615.5933837890625,
				637.1006469726562
			],
			"min":[
				-637.1005859375,
				-615.5933837890625,
				-637.1006469726562
			],
			"type":"VEC3"
		},
		{
			"bufferView":1,
			"componentType":5126,
			"count":151,
			"type":"VEC3"
		},
		{
			"bufferView":2,
			"componentType":5126,
			"count":151,
			"type":"VEC2"
		},
		{
			"bufferView":3,
			"componentType":5123,
			"count":672,
			"type":"SCALAR"
		},
		{
			"bufferView":4,
			"componentType":5126,
			"count":151,
			"max":[
				637.1006469726562,
				615.5933837890625,
				637.1006469726562
			],
			"min":[
				-637.1005859375,
				-615.5933837890625,
				-637.1006469726562
			],
			"type":"VEC3"
		},
		{
			"bufferView":5,
			"componentType":5126,
			"count":151,
			"type":"VEC3"
		},
		{
			"bufferView":6,
			"componentType":5126,
			"count":151,
			"type":"VEC2"
		},
		{
			"bufferView":7,
			"componentType":5126,
			"count":151,
			"max":[
				637.1006469726562,
				615.5933837890625,
				637.1006469726562
			],
			"min":[
				-637.1005859375,
				-615.5933837890625,
				-637.1006469726562
			],
			"type":"VEC3"
		},
		{
			"bufferView":8,
			"componentType":5126,
			"count":151,
			"type":"VEC3"
		},
		{
			"bufferView":9,
			"componentType":5126,
			"count":151,
			"type":"VEC2"
		}
	],
	"bufferViews":[
		{
			"buffer":0,
			"byteLength":1812,
			"byteOffset":0,
			"target":34962
		},
		{
			"buffer":0,
			"byteLength":1812,
			"byteOffset":1812,
			"target":34962
		},
		{
			"buffer":0,
			"byteLength":1208,
			"byteOffset":3624,
			"target":34962
		},
		{
			"buffer":0,
			"byteLength":1344,
			"byteOffset":4832,
			"target":34963
		},
		{
			"buffer":0,
			"byteLength":1812,
			"byteOffset":6176,
			"target":34962
		},
		{
			"buffer":0,
			"byteLength":1812,
			"byteOffset":7988,
			"target":34962
		},
		{
			"buffer":0,
			"byteLength":1208,
			"byteOffset":9800,
			"target":34962
		},
		{
			"buffer":0,
			"byteLength":1812,
			"byteOffset":11008,
			"target":34962
		},
		{
			"buffer":0,
			"byteLength":1812,
			"byteOffset":12820,
			"target":34962
		},
		{
			"buffer":0,
			"byteLength":1208,
			"byteOffset":14632,
			"target":34962
		}
	],
	"samplers":[
		{
			"magFilter":9729,
			"minFilter":9987
		}
	],
	"buffers":[
		{
			"byteLength":15840,
			"uri":"Earth.bin"
		}
	]
}
